<svg xmlns="http://www.w3.org/2000/svg" viewBox="0 0 940 206" role="img" aria-label="RAG 入库与检索双管线">
<defs>
<marker id="ah9-t" markerWidth="9" markerHeight="9" refX="7" refY="4.5" orient="auto"><path d="M0,0 L9,4.5 L0,9 Z" fill="#0b7285"/></marker>
<marker id="ah9-o" markerWidth="9" markerHeight="9" refX="7" refY="4.5" orient="auto"><path d="M0,0 L9,4.5 L0,9 Z" fill="#e8590c"/></marker>
</defs>
<text class="svg-lbl-sm" x="20" y="26" style="fill:#0b7285;letter-spacing:.18em;">INDEX · 入库管线（应用启动，后台线程异步执行）</text>
<rect class="svg-node svg-node-teal" x="20" y="42" width="150" height="58" rx="3"/>
<text class="svg-lbl" x="95" y="66" text-anchor="middle">docs/ 文档目录</text>
<text class="svg-lbl-sm" x="95" y="84" text-anchor="middle">投放即加载</text>
<rect class="svg-node svg-node-teal" x="200" y="42" width="150" height="58" rx="3"/>
<text class="svg-lbl" x="275" y="66" text-anchor="middle">FileReader</text>
<text class="svg-lbl-sm" x="275" y="84" text-anchor="middle">多格式解析</text>
<rect class="svg-node svg-node-teal" x="380" y="42" width="160" height="58" rx="3"/>
<text class="svg-lbl" x="460" y="66" text-anchor="middle">TextSplitter</text>
<text class="svg-lbl-sm" x="460" y="84" text-anchor="middle">递归切分 + 重叠</text>
<rect class="svg-node svg-node-teal" x="570" y="42" width="160" height="58" rx="3"/>
<text class="svg-lbl" x="650" y="66" text-anchor="middle">EmbeddingModel</text>
<text class="svg-lbl-sm" x="650" y="84" text-anchor="middle">/embeddings 向量化</text>
<rect class="svg-node svg-node-teal" x="760" y="42" width="160" height="58" rx="3"/>
<text class="svg-lbl" x="840" y="66" text-anchor="middle">SqliteStore</text>
<text class="svg-lbl-sm" x="840" y="84" text-anchor="middle">向量持久化</text>
<path class="svg-line-teal flow-anim" d="M170,71 L200,71" marker-end="url(#ah9-t)"/>
<path class="svg-line-teal flow-anim" d="M350,71 L380,71" marker-end="url(#ah9-t)"/>
<path class="svg-line-teal flow-anim" d="M540,71 L570,71" marker-end="url(#ah9-t)"/>
<path class="svg-line-teal flow-anim" d="M730,71 L760,71" marker-end="url(#ah9-t)"/>
<text class="svg-lbl-sm" x="20" y="134" style="fill:#e8590c;letter-spacing:.18em;">RETRIEVE · 检索管线（对话期间，LLM 主动调用）</text>
<rect class="svg-node svg-node-acc" x="200" y="148" width="190" height="44" rx="3"/>
<text class="svg-lbl" x="295" y="175" text-anchor="middle">rag_search(text, topN)</text>
<path class="svg-line-acc flow-anim" d="M390,170 L560,170" marker-end="url(#ah9-o)"/>
<rect class="svg-node svg-node-acc" x="560" y="148" width="190" height="44" rx="3"/>
<text class="svg-lbl" x="655" y="175" text-anchor="middle">相似度 Top-N 召回</text>
<path class="svg-line svg-dash" d="M840,100 C840,138 768,148 750,160" marker-end="url(#ah9-o)"/>
</svg>
